<mxfile host="app.diagrams.net" agent="Mozilla/5.0 (Windows NT 10.0; Win64; x64) AppleWebKit/537.36 (KHTML, like Gecko) Chrome/134.0.0.0 Safari/537.36" version="26.2.2">
  <diagram id="C5RBs43oDa-KdzZeNtuy" name="Page-1">
    <mxGraphModel dx="815" dy="424" grid="1" gridSize="10" guides="1" tooltips="1" connect="1" arrows="1" fold="1" page="1" pageScale="1" pageWidth="827" pageHeight="1169" math="0" shadow="0">
      <root>
        <mxCell id="WIyWlLk6GJQsqaUBKTNV-0" />
        <mxCell id="WIyWlLk6GJQsqaUBKTNV-1" parent="WIyWlLk6GJQsqaUBKTNV-0" />
        <mxCell id="-Z_0PIRO6K9JXIIoKUoD-7" style="edgeStyle=orthogonalEdgeStyle;rounded=0;orthogonalLoop=1;jettySize=auto;html=1;entryX=0;entryY=0.5;entryDx=0;entryDy=0;" edge="1" parent="WIyWlLk6GJQsqaUBKTNV-1" source="WIyWlLk6GJQsqaUBKTNV-3" target="-Z_0PIRO6K9JXIIoKUoD-6">
          <mxGeometry relative="1" as="geometry" />
        </mxCell>
        <mxCell id="WIyWlLk6GJQsqaUBKTNV-3" value="Individual has insufficient Y on rejected date" style="rounded=1;whiteSpace=wrap;html=1;fontSize=12;glass=0;strokeWidth=1;shadow=0;" parent="WIyWlLk6GJQsqaUBKTNV-1" vertex="1">
          <mxGeometry x="40" y="150" width="120" height="50" as="geometry" />
        </mxCell>
        <mxCell id="-Z_0PIRO6K9JXIIoKUoD-11" style="edgeStyle=orthogonalEdgeStyle;rounded=0;orthogonalLoop=1;jettySize=auto;html=1;entryX=0;entryY=0.5;entryDx=0;entryDy=0;" edge="1" parent="WIyWlLk6GJQsqaUBKTNV-1" source="-Z_0PIRO6K9JXIIoKUoD-6" target="-Z_0PIRO6K9JXIIoKUoD-8">
          <mxGeometry relative="1" as="geometry" />
        </mxCell>
        <mxCell id="-Z_0PIRO6K9JXIIoKUoD-14" value="All RFI Submitted" style="edgeLabel;html=1;align=center;verticalAlign=middle;resizable=0;points=[];" vertex="1" connectable="0" parent="-Z_0PIRO6K9JXIIoKUoD-11">
          <mxGeometry x="0.0627" relative="1" as="geometry">
            <mxPoint as="offset" />
          </mxGeometry>
        </mxCell>
        <mxCell id="-Z_0PIRO6K9JXIIoKUoD-12" style="edgeStyle=orthogonalEdgeStyle;rounded=0;orthogonalLoop=1;jettySize=auto;html=1;entryX=0;entryY=0.5;entryDx=0;entryDy=0;" edge="1" parent="WIyWlLk6GJQsqaUBKTNV-1" source="-Z_0PIRO6K9JXIIoKUoD-6" target="-Z_0PIRO6K9JXIIoKUoD-10">
          <mxGeometry relative="1" as="geometry" />
        </mxCell>
        <mxCell id="-Z_0PIRO6K9JXIIoKUoD-16" value="No RFI Submitted" style="edgeLabel;html=1;align=center;verticalAlign=middle;resizable=0;points=[];" vertex="1" connectable="0" parent="-Z_0PIRO6K9JXIIoKUoD-12">
          <mxGeometry x="0.1685" y="4" relative="1" as="geometry">
            <mxPoint as="offset" />
          </mxGeometry>
        </mxCell>
        <mxCell id="-Z_0PIRO6K9JXIIoKUoD-13" style="edgeStyle=orthogonalEdgeStyle;rounded=0;orthogonalLoop=1;jettySize=auto;html=1;entryX=0;entryY=0.5;entryDx=0;entryDy=0;" edge="1" parent="WIyWlLk6GJQsqaUBKTNV-1" source="-Z_0PIRO6K9JXIIoKUoD-6" target="-Z_0PIRO6K9JXIIoKUoD-9">
          <mxGeometry relative="1" as="geometry" />
        </mxCell>
        <mxCell id="-Z_0PIRO6K9JXIIoKUoD-15" value="&lt;br&gt;Some&lt;br&gt;RFI&lt;br&gt;Submitted" style="edgeLabel;html=1;align=center;verticalAlign=middle;resizable=0;points=[];" vertex="1" connectable="0" parent="-Z_0PIRO6K9JXIIoKUoD-13">
          <mxGeometry x="0.4103" y="1" relative="1" as="geometry">
            <mxPoint as="offset" />
          </mxGeometry>
        </mxCell>
        <mxCell id="-Z_0PIRO6K9JXIIoKUoD-6" value="Submitted&lt;br&gt;RFI" style="rhombus;whiteSpace=wrap;html=1;" vertex="1" parent="WIyWlLk6GJQsqaUBKTNV-1">
          <mxGeometry x="230" y="135" width="80" height="80" as="geometry" />
        </mxCell>
        <mxCell id="-Z_0PIRO6K9JXIIoKUoD-8" value="Select Record w/ Rejection Date" style="rounded=0;whiteSpace=wrap;html=1;fillColor=#d5e8d4;strokeColor=#82b366;" vertex="1" parent="WIyWlLk6GJQsqaUBKTNV-1">
          <mxGeometry x="414" y="40" width="120" height="60" as="geometry" />
        </mxCell>
        <mxCell id="-Z_0PIRO6K9JXIIoKUoD-9" value="Select Record w/ Rejection Date" style="rounded=0;whiteSpace=wrap;html=1;fillColor=#d5e8d4;strokeColor=#82b366;" vertex="1" parent="WIyWlLk6GJQsqaUBKTNV-1">
          <mxGeometry x="480" y="142.5" width="120" height="65" as="geometry" />
        </mxCell>
        <mxCell id="-Z_0PIRO6K9JXIIoKUoD-10" value="Scenario DNE" style="rounded=0;whiteSpace=wrap;html=1;fillColor=#f8cecc;strokeColor=#b85450;" vertex="1" parent="WIyWlLk6GJQsqaUBKTNV-1">
          <mxGeometry x="414" y="250" width="120" height="60" as="geometry" />
        </mxCell>
        <mxCell id="-Z_0PIRO6K9JXIIoKUoD-17" value="&lt;div style=&quot;line-height: 100%;&quot;&gt;&lt;p style=&quot;margin-top: 0px;&quot;&gt;&lt;span style=&quot;background-color: transparent;&quot;&gt;&lt;font color=&quot;rgba(0, 0, 0, 0)&quot;&gt;WHEN&amp;nbsp;&lt;/font&gt;&lt;/span&gt;&lt;span style=&quot;background-color: transparent; color: light-dark(rgb(0, 0, 0), rgb(255, 255, 255));&quot;&gt;A.ISINSUFFICIENT&amp;nbsp;&lt;/span&gt;&lt;font style=&quot;background-color: transparent;&quot;&gt;IS NOT NULL THEN A.REJECTIONDATE&lt;/font&gt;&lt;/p&gt;&lt;p&gt;&lt;/p&gt;&lt;p style=&quot;margin-top: 0px; margin-bottom: 0px;&quot;&gt;&lt;span style=&quot;background-color: transparent; color: light-dark(rgb(0, 0, 0), rgb(255, 255, 255));&quot;&gt;END DESC&lt;/span&gt;&lt;/p&gt;&lt;/div&gt;" style="text;html=1;whiteSpace=wrap;overflow=hidden;rounded=0;" vertex="1" parent="WIyWlLk6GJQsqaUBKTNV-1">
          <mxGeometry x="540" y="45" width="480" height="50" as="geometry" />
        </mxCell>
        <mxCell id="-Z_0PIRO6K9JXIIoKUoD-19" value="&lt;div style=&quot;line-height: 100%;&quot;&gt;&lt;p style=&quot;margin-top: 0px;&quot;&gt;&lt;span style=&quot;background-color: transparent;&quot;&gt;&lt;font color=&quot;rgba(0, 0, 0, 0)&quot;&gt;WHEN&amp;nbsp;&lt;/font&gt;&lt;/span&gt;&lt;span style=&quot;background-color: transparent; color: light-dark(rgb(0, 0, 0), rgb(255, 255, 255));&quot;&gt;A.ISINSUFFICIENT&amp;nbsp;&lt;/span&gt;&lt;font style=&quot;background-color: transparent;&quot;&gt;IS NOT NULL THEN A.REJECTIONDATE&lt;/font&gt;&lt;/p&gt;&lt;p&gt;&lt;/p&gt;&lt;p style=&quot;margin-top: 0px; margin-bottom: 0px;&quot;&gt;&lt;span style=&quot;background-color: transparent; color: light-dark(rgb(0, 0, 0), rgb(255, 255, 255));&quot;&gt;END DESC&lt;/span&gt;&lt;/p&gt;&lt;/div&gt;" style="text;html=1;whiteSpace=wrap;overflow=hidden;rounded=0;" vertex="1" parent="WIyWlLk6GJQsqaUBKTNV-1">
          <mxGeometry x="610" y="150" width="480" height="50" as="geometry" />
        </mxCell>
        <mxCell id="-Z_0PIRO6K9JXIIoKUoD-20" style="edgeStyle=orthogonalEdgeStyle;rounded=0;orthogonalLoop=1;jettySize=auto;html=1;entryX=0;entryY=0.5;entryDx=0;entryDy=0;" edge="1" parent="WIyWlLk6GJQsqaUBKTNV-1" source="-Z_0PIRO6K9JXIIoKUoD-21" target="-Z_0PIRO6K9JXIIoKUoD-28">
          <mxGeometry relative="1" as="geometry" />
        </mxCell>
        <mxCell id="-Z_0PIRO6K9JXIIoKUoD-21" value="Individual has insufficient RFI on after rejected" style="rounded=1;whiteSpace=wrap;html=1;fontSize=12;glass=0;strokeWidth=1;shadow=0;" vertex="1" parent="WIyWlLk6GJQsqaUBKTNV-1">
          <mxGeometry x="40" y="500" width="120" height="50" as="geometry" />
        </mxCell>
        <mxCell id="-Z_0PIRO6K9JXIIoKUoD-22" style="edgeStyle=orthogonalEdgeStyle;rounded=0;orthogonalLoop=1;jettySize=auto;html=1;entryX=0;entryY=0.5;entryDx=0;entryDy=0;" edge="1" parent="WIyWlLk6GJQsqaUBKTNV-1" source="-Z_0PIRO6K9JXIIoKUoD-28" target="-Z_0PIRO6K9JXIIoKUoD-29">
          <mxGeometry relative="1" as="geometry" />
        </mxCell>
        <mxCell id="-Z_0PIRO6K9JXIIoKUoD-23" value="All RFI Submitted" style="edgeLabel;html=1;align=center;verticalAlign=middle;resizable=0;points=[];" vertex="1" connectable="0" parent="-Z_0PIRO6K9JXIIoKUoD-22">
          <mxGeometry x="0.0627" relative="1" as="geometry">
            <mxPoint as="offset" />
          </mxGeometry>
        </mxCell>
        <mxCell id="-Z_0PIRO6K9JXIIoKUoD-24" style="edgeStyle=orthogonalEdgeStyle;rounded=0;orthogonalLoop=1;jettySize=auto;html=1;entryX=0;entryY=0.5;entryDx=0;entryDy=0;" edge="1" parent="WIyWlLk6GJQsqaUBKTNV-1" source="-Z_0PIRO6K9JXIIoKUoD-28" target="-Z_0PIRO6K9JXIIoKUoD-31">
          <mxGeometry relative="1" as="geometry" />
        </mxCell>
        <mxCell id="-Z_0PIRO6K9JXIIoKUoD-25" value="No RFI Submitted" style="edgeLabel;html=1;align=center;verticalAlign=middle;resizable=0;points=[];" vertex="1" connectable="0" parent="-Z_0PIRO6K9JXIIoKUoD-24">
          <mxGeometry x="0.1685" y="4" relative="1" as="geometry">
            <mxPoint as="offset" />
          </mxGeometry>
        </mxCell>
        <mxCell id="-Z_0PIRO6K9JXIIoKUoD-26" style="edgeStyle=orthogonalEdgeStyle;rounded=0;orthogonalLoop=1;jettySize=auto;html=1;entryX=0;entryY=0.5;entryDx=0;entryDy=0;" edge="1" parent="WIyWlLk6GJQsqaUBKTNV-1" source="-Z_0PIRO6K9JXIIoKUoD-28" target="-Z_0PIRO6K9JXIIoKUoD-30">
          <mxGeometry relative="1" as="geometry" />
        </mxCell>
        <mxCell id="-Z_0PIRO6K9JXIIoKUoD-27" value="&lt;br&gt;Some&lt;br&gt;RFI&lt;br&gt;Submitted" style="edgeLabel;html=1;align=center;verticalAlign=middle;resizable=0;points=[];" vertex="1" connectable="0" parent="-Z_0PIRO6K9JXIIoKUoD-26">
          <mxGeometry x="0.4103" y="1" relative="1" as="geometry">
            <mxPoint as="offset" />
          </mxGeometry>
        </mxCell>
        <mxCell id="-Z_0PIRO6K9JXIIoKUoD-28" value="Submitted&lt;br&gt;RFI" style="rhombus;whiteSpace=wrap;html=1;" vertex="1" parent="WIyWlLk6GJQsqaUBKTNV-1">
          <mxGeometry x="230" y="485" width="80" height="80" as="geometry" />
        </mxCell>
        <mxCell id="-Z_0PIRO6K9JXIIoKUoD-29" value="No Message Sent" style="rounded=0;whiteSpace=wrap;html=1;fillColor=#f8cecc;strokeColor=#b85450;" vertex="1" parent="WIyWlLk6GJQsqaUBKTNV-1">
          <mxGeometry x="414" y="390" width="120" height="60" as="geometry" />
        </mxCell>
        <mxCell id="-Z_0PIRO6K9JXIIoKUoD-30" value="Select Record w/&lt;br&gt;No Submitted Date" style="rounded=0;whiteSpace=wrap;html=1;fillColor=#d5e8d4;strokeColor=#82b366;" vertex="1" parent="WIyWlLk6GJQsqaUBKTNV-1">
          <mxGeometry x="480" y="492.5" width="120" height="65" as="geometry" />
        </mxCell>
        <mxCell id="-Z_0PIRO6K9JXIIoKUoD-31" value="&lt;div&gt;Select Record w/&lt;br&gt;No Submitted Date&lt;/div&gt;" style="rounded=0;whiteSpace=wrap;html=1;fillColor=#d5e8d4;strokeColor=#82b366;" vertex="1" parent="WIyWlLk6GJQsqaUBKTNV-1">
          <mxGeometry x="414" y="600" width="120" height="60" as="geometry" />
        </mxCell>
        <mxCell id="-Z_0PIRO6K9JXIIoKUoD-32" value="&lt;div style=&quot;line-height: 100%;&quot;&gt;&lt;p style=&quot;margin-top: 0px;&quot;&gt;&lt;span style=&quot;background-color: transparent;&quot;&gt;&lt;font color=&quot;rgba(0, 0, 0, 0)&quot;&gt;WHEN&amp;nbsp;&lt;/font&gt;&lt;/span&gt;&lt;span style=&quot;background-color: transparent; color: light-dark(rgb(0, 0, 0), rgb(255, 255, 255));&quot;&gt;A.ISINSUFFICIENT&amp;nbsp;&lt;/span&gt;&lt;font style=&quot;background-color: transparent;&quot;&gt;IS NOT NULL THEN A.VALIDSOURCERECEIVEDDATE&lt;/font&gt;&lt;/p&gt;&lt;p&gt;&lt;/p&gt;&lt;p style=&quot;margin-top: 0px; margin-bottom: 0px;&quot;&gt;&lt;span style=&quot;background-color: transparent; color: light-dark(rgb(0, 0, 0), rgb(255, 255, 255));&quot;&gt;END ASC&lt;/span&gt;&lt;/p&gt;&lt;/div&gt;" style="text;html=1;whiteSpace=wrap;overflow=hidden;rounded=0;" vertex="1" parent="WIyWlLk6GJQsqaUBKTNV-1">
          <mxGeometry x="540" y="395" width="480" height="50" as="geometry" />
        </mxCell>
        <mxCell id="-Z_0PIRO6K9JXIIoKUoD-33" value="&lt;div style=&quot;line-height: 100%;&quot;&gt;&lt;p style=&quot;margin-top: 0px;&quot;&gt;&lt;span style=&quot;background-color: transparent;&quot;&gt;&lt;font&gt;WHEN&amp;nbsp;&lt;/font&gt;&lt;/span&gt;&lt;span style=&quot;background-color: transparent; color: light-dark(rgb(0, 0, 0), rgb(255, 255, 255));&quot;&gt;A.ISINSUFFICIENT&amp;nbsp;&lt;/span&gt;&lt;font style=&quot;background-color: transparent;&quot;&gt;IS NOT NULL THEN A.VALIDSOURCERECEIVEDDATE&lt;/font&gt;&lt;/p&gt;&lt;p&gt;&lt;/p&gt;&lt;p style=&quot;margin-top: 0px; margin-bottom: 0px;&quot;&gt;&lt;span style=&quot;background-color: transparent; color: light-dark(rgb(0, 0, 0), rgb(255, 255, 255));&quot;&gt;END ASC&lt;/span&gt;&lt;/p&gt;&lt;/div&gt;" style="text;html=1;whiteSpace=wrap;overflow=hidden;rounded=0;" vertex="1" parent="WIyWlLk6GJQsqaUBKTNV-1">
          <mxGeometry x="610" y="500" width="480" height="50" as="geometry" />
        </mxCell>
        <mxCell id="-Z_0PIRO6K9JXIIoKUoD-34" value="&lt;div style=&quot;line-height: 100%;&quot;&gt;&lt;p style=&quot;margin-top: 0px;&quot;&gt;&lt;span style=&quot;background-color: transparent;&quot;&gt;&lt;font&gt;WHEN&amp;nbsp;&lt;/font&gt;&lt;/span&gt;&lt;span style=&quot;background-color: transparent; color: light-dark(rgb(0, 0, 0), rgb(255, 255, 255));&quot;&gt;A.ISINSUFFICIENT&amp;nbsp;&lt;/span&gt;&lt;font style=&quot;background-color: transparent;&quot;&gt;IS NOT NULL THEN A.VALIDSOURCERECEIVEDDATE&lt;/font&gt;&lt;/p&gt;&lt;p&gt;&lt;/p&gt;&lt;p style=&quot;margin-top: 0px; margin-bottom: 0px;&quot;&gt;&lt;span style=&quot;background-color: transparent; color: light-dark(rgb(0, 0, 0), rgb(255, 255, 255));&quot;&gt;END ASC&lt;/span&gt;&lt;/p&gt;&lt;/div&gt;" style="text;html=1;whiteSpace=wrap;overflow=hidden;rounded=0;" vertex="1" parent="WIyWlLk6GJQsqaUBKTNV-1">
          <mxGeometry x="540" y="605" width="480" height="50" as="geometry" />
        </mxCell>
        <mxCell id="-Z_0PIRO6K9JXIIoKUoD-35" style="edgeStyle=orthogonalEdgeStyle;rounded=0;orthogonalLoop=1;jettySize=auto;html=1;entryX=0;entryY=0.5;entryDx=0;entryDy=0;" edge="1" parent="WIyWlLk6GJQsqaUBKTNV-1" source="-Z_0PIRO6K9JXIIoKUoD-36" target="-Z_0PIRO6K9JXIIoKUoD-43">
          <mxGeometry relative="1" as="geometry" />
        </mxCell>
        <mxCell id="-Z_0PIRO6K9JXIIoKUoD-36" value="Individual has RFI" style="rounded=1;whiteSpace=wrap;html=1;fontSize=12;glass=0;strokeWidth=1;shadow=0;" vertex="1" parent="WIyWlLk6GJQsqaUBKTNV-1">
          <mxGeometry x="40" y="850" width="120" height="50" as="geometry" />
        </mxCell>
        <mxCell id="-Z_0PIRO6K9JXIIoKUoD-37" style="edgeStyle=orthogonalEdgeStyle;rounded=0;orthogonalLoop=1;jettySize=auto;html=1;entryX=0;entryY=0.5;entryDx=0;entryDy=0;" edge="1" parent="WIyWlLk6GJQsqaUBKTNV-1" source="-Z_0PIRO6K9JXIIoKUoD-43" target="-Z_0PIRO6K9JXIIoKUoD-44">
          <mxGeometry relative="1" as="geometry" />
        </mxCell>
        <mxCell id="-Z_0PIRO6K9JXIIoKUoD-38" value="All RFI Submitted" style="edgeLabel;html=1;align=center;verticalAlign=middle;resizable=0;points=[];" vertex="1" connectable="0" parent="-Z_0PIRO6K9JXIIoKUoD-37">
          <mxGeometry x="0.0627" relative="1" as="geometry">
            <mxPoint as="offset" />
          </mxGeometry>
        </mxCell>
        <mxCell id="-Z_0PIRO6K9JXIIoKUoD-39" style="edgeStyle=orthogonalEdgeStyle;rounded=0;orthogonalLoop=1;jettySize=auto;html=1;entryX=0;entryY=0.5;entryDx=0;entryDy=0;" edge="1" parent="WIyWlLk6GJQsqaUBKTNV-1" source="-Z_0PIRO6K9JXIIoKUoD-43" target="-Z_0PIRO6K9JXIIoKUoD-46">
          <mxGeometry relative="1" as="geometry" />
        </mxCell>
        <mxCell id="-Z_0PIRO6K9JXIIoKUoD-40" value="No RFI Submitted" style="edgeLabel;html=1;align=center;verticalAlign=middle;resizable=0;points=[];" vertex="1" connectable="0" parent="-Z_0PIRO6K9JXIIoKUoD-39">
          <mxGeometry x="0.1685" y="4" relative="1" as="geometry">
            <mxPoint as="offset" />
          </mxGeometry>
        </mxCell>
        <mxCell id="-Z_0PIRO6K9JXIIoKUoD-41" style="edgeStyle=orthogonalEdgeStyle;rounded=0;orthogonalLoop=1;jettySize=auto;html=1;entryX=0;entryY=0.5;entryDx=0;entryDy=0;" edge="1" parent="WIyWlLk6GJQsqaUBKTNV-1" source="-Z_0PIRO6K9JXIIoKUoD-43" target="-Z_0PIRO6K9JXIIoKUoD-45">
          <mxGeometry relative="1" as="geometry" />
        </mxCell>
        <mxCell id="-Z_0PIRO6K9JXIIoKUoD-42" value="&lt;br&gt;Some&lt;br&gt;RFI&lt;br&gt;Submitted" style="edgeLabel;html=1;align=center;verticalAlign=middle;resizable=0;points=[];" vertex="1" connectable="0" parent="-Z_0PIRO6K9JXIIoKUoD-41">
          <mxGeometry x="0.4103" y="1" relative="1" as="geometry">
            <mxPoint as="offset" />
          </mxGeometry>
        </mxCell>
        <mxCell id="-Z_0PIRO6K9JXIIoKUoD-43" value="Submitted&lt;br&gt;RFI" style="rhombus;whiteSpace=wrap;html=1;" vertex="1" parent="WIyWlLk6GJQsqaUBKTNV-1">
          <mxGeometry x="230" y="835" width="80" height="80" as="geometry" />
        </mxCell>
        <mxCell id="-Z_0PIRO6K9JXIIoKUoD-44" value="No Message Sent" style="rounded=0;whiteSpace=wrap;html=1;fillColor=#f8cecc;strokeColor=#b85450;" vertex="1" parent="WIyWlLk6GJQsqaUBKTNV-1">
          <mxGeometry x="414" y="740" width="120" height="60" as="geometry" />
        </mxCell>
        <mxCell id="-Z_0PIRO6K9JXIIoKUoD-45" value="Select Record w/&lt;br&gt;No Submitted Date" style="rounded=0;whiteSpace=wrap;html=1;fillColor=#d5e8d4;strokeColor=#82b366;" vertex="1" parent="WIyWlLk6GJQsqaUBKTNV-1">
          <mxGeometry x="480" y="842.5" width="120" height="65" as="geometry" />
        </mxCell>
        <mxCell id="-Z_0PIRO6K9JXIIoKUoD-46" value="&lt;div&gt;Select Record w/&lt;br&gt;No Submitted Date&lt;/div&gt;" style="rounded=0;whiteSpace=wrap;html=1;fillColor=#d5e8d4;strokeColor=#82b366;" vertex="1" parent="WIyWlLk6GJQsqaUBKTNV-1">
          <mxGeometry x="414" y="950" width="120" height="60" as="geometry" />
        </mxCell>
        <mxCell id="-Z_0PIRO6K9JXIIoKUoD-47" value="&lt;div style=&quot;line-height: 100%;&quot;&gt;&lt;p style=&quot;margin-top: 0px;&quot;&gt;&lt;span style=&quot;background-color: transparent;&quot;&gt;&lt;font color=&quot;rgba(0, 0, 0, 0)&quot;&gt;WHEN&amp;nbsp;&lt;/font&gt;&lt;/span&gt;A.VALIDSOURCERECEIVEDDATE&lt;span style=&quot;background-color: transparent; color: light-dark(rgb(0, 0, 0), rgb(255, 255, 255));&quot;&gt;&amp;nbsp;&lt;/span&gt;&lt;font style=&quot;background-color: transparent;&quot;&gt;IS NOT NULL THEN A.VALIDSOURCERECEIVEDDATE&lt;/font&gt;&lt;/p&gt;&lt;p&gt;&lt;/p&gt;&lt;p style=&quot;margin-top: 0px; margin-bottom: 0px;&quot;&gt;&lt;span style=&quot;background-color: transparent; color: light-dark(rgb(0, 0, 0), rgb(255, 255, 255));&quot;&gt;END ASC&lt;/span&gt;&lt;/p&gt;&lt;/div&gt;" style="text;html=1;whiteSpace=wrap;overflow=hidden;rounded=0;" vertex="1" parent="WIyWlLk6GJQsqaUBKTNV-1">
          <mxGeometry x="540" y="745" width="480" height="50" as="geometry" />
        </mxCell>
        <mxCell id="-Z_0PIRO6K9JXIIoKUoD-48" value="&lt;div style=&quot;line-height: 100%;&quot;&gt;&lt;p style=&quot;margin-top: 0px;&quot;&gt;&lt;span style=&quot;background-color: transparent;&quot;&gt;&lt;font&gt;WHEN&amp;nbsp;&lt;/font&gt;&lt;/span&gt;&lt;span style=&quot;background-color: transparent; color: light-dark(rgb(0, 0, 0), rgb(255, 255, 255));&quot;&gt;A.VALIDSOURCERECEIVEDDATE&amp;nbsp;&lt;/span&gt;&lt;font style=&quot;background-color: transparent;&quot;&gt;IS NOT NULL THEN A.VALIDSOURCERECEIVEDDATE&lt;/font&gt;&lt;/p&gt;&lt;p&gt;&lt;/p&gt;&lt;p style=&quot;margin-top: 0px; margin-bottom: 0px;&quot;&gt;&lt;span style=&quot;background-color: transparent; color: light-dark(rgb(0, 0, 0), rgb(255, 255, 255));&quot;&gt;END ASC&lt;/span&gt;&lt;/p&gt;&lt;/div&gt;" style="text;html=1;whiteSpace=wrap;overflow=hidden;rounded=0;" vertex="1" parent="WIyWlLk6GJQsqaUBKTNV-1">
          <mxGeometry x="610" y="850" width="480" height="50" as="geometry" />
        </mxCell>
        <mxCell id="-Z_0PIRO6K9JXIIoKUoD-49" value="&lt;div style=&quot;line-height: 100%;&quot;&gt;&lt;p style=&quot;margin-top: 0px;&quot;&gt;&lt;span style=&quot;background-color: transparent;&quot;&gt;&lt;font&gt;WHEN&amp;nbsp;&lt;/font&gt;&lt;/span&gt;A.VALIDSOURCERECEIVEDDATE&lt;span style=&quot;background-color: transparent; color: light-dark(rgb(0, 0, 0), rgb(255, 255, 255));&quot;&gt;&amp;nbsp;&lt;/span&gt;&lt;font style=&quot;background-color: transparent;&quot;&gt;IS NOT NULL THEN A.VALIDSOURCERECEIVEDDATE&lt;/font&gt;&lt;/p&gt;&lt;p&gt;&lt;/p&gt;&lt;p style=&quot;margin-top: 0px; margin-bottom: 0px;&quot;&gt;&lt;span style=&quot;background-color: transparent; color: light-dark(rgb(0, 0, 0), rgb(255, 255, 255));&quot;&gt;END ASC&lt;/span&gt;&lt;/p&gt;&lt;/div&gt;" style="text;html=1;whiteSpace=wrap;overflow=hidden;rounded=0;" vertex="1" parent="WIyWlLk6GJQsqaUBKTNV-1">
          <mxGeometry x="540" y="955" width="480" height="50" as="geometry" />
        </mxCell>
      </root>
    </mxGraphModel>
  </diagram>
</mxfile>
